<svg width="24" height="24" viewBox="0 0 24 24" fill="none" xmlns="http://www.w3.org/2000/svg">
<path d="M17.2746 13.4617C16.8725 13.8541 16.6428 14.4189 16.7003 15.0219C16.7864 16.0557 17.734 16.8118 18.7678 16.8118H20.5864V17.9509C20.5864 19.9323 18.9688 21.5499 16.9874 21.5499H5.99892C4.01755 21.5499 2.3999 19.9323 2.3999 17.9509V11.5091C2.3999 9.52769 4.01755 7.91003 5.99892 7.91003H16.9874C18.9688 7.91003 20.5864 9.52769 20.5864 11.5091V12.8874H18.6529C18.1169 12.8874 17.6287 13.098 17.2746 13.4617Z" stroke="#111827" stroke-width="2" stroke-linecap="round" stroke-linejoin="round"/>
<path d="M2.3999 12.3705V7.99625C2.3999 6.8572 3.09865 5.84254 4.16112 5.44053L11.7612 2.56897C12.9481 2.11909 14.2211 2.99973 14.2211 4.27279V7.91008" stroke="#111827" stroke-width="2" stroke-linecap="round" stroke-linejoin="round"/>
<path d="M21.6 13.8639V15.8358C21.6 16.3622 21.1788 16.7929 20.6428 16.8121H18.7667C17.7329 16.8121 16.7853 16.0559 16.6992 15.0221C16.6417 14.4191 16.8715 13.8544 17.2735 13.4619C17.6276 13.0982 18.1158 12.8876 18.6518 12.8876H20.6428C21.1788 12.9068 21.6 13.3375 21.6 13.8639Z" stroke="#111827" stroke-width="1.5" stroke-linecap="round" stroke-linejoin="round"/>
<path d="M6.70703 11.9781H13.4073" stroke="#111827" stroke-width="2" stroke-linecap="round" stroke-linejoin="round"/>
</svg>
