<svg width="33" height="33" viewBox="0 0 33 33" fill="none" xmlns="http://www.w3.org/2000/svg">
<path opacity="0.4" d="M26.5927 19.9237L25.2177 17.6412C24.9289 17.1325 24.6677 16.17 24.6677 15.6062V12.1275C24.6677 7.64499 21.0239 3.98749 16.5277 3.98749C12.0314 3.98749 8.38767 7.64499 8.38767 12.1275V15.6062C8.38767 16.17 8.12642 17.1325 7.83767 17.6275L6.44892 19.9237C5.89892 20.845 5.77517 21.8625 6.11892 22.7975C6.44892 23.7187 7.23267 24.4337 8.25017 24.7775C10.9177 25.685 13.7227 26.125 16.5277 26.125C19.3327 26.125 22.1377 25.685 24.8052 24.7912C25.7677 24.475 26.5102 23.7462 26.8677 22.7975C27.2252 21.8487 27.1289 20.8037 26.5927 19.9237Z" fill="#10B981"/>
<path d="M19.5938 4.565C18.6451 4.19375 17.6138 3.9875 16.5276 3.9875C15.4551 3.9875 14.4238 4.18 13.4751 4.565C14.0663 3.45125 15.2351 2.75 16.5276 2.75C17.8338 2.75 18.9888 3.45125 19.5938 4.565Z" fill="#10B981"/>
<path d="M20.3913 27.5138C19.8138 29.1088 18.2876 30.25 16.5001 30.25C15.4138 30.25 14.3413 29.81 13.5851 29.0263C13.1451 28.6138 12.8151 28.0638 12.6226 27.5C12.8013 27.5275 12.9801 27.5412 13.1726 27.5687C13.4888 27.61 13.8188 27.6512 14.1488 27.6787C14.9326 27.7475 15.7301 27.7887 16.5276 27.7887C17.3113 27.7887 18.0951 27.7475 18.8651 27.6787C19.1538 27.6512 19.4426 27.6375 19.7176 27.5962C19.9376 27.5687 20.1576 27.5413 20.3913 27.5138Z" fill="#10B981"/>
<path d="M26.125 11C28.4032 11 30.25 9.15317 30.25 6.875C30.25 4.59683 28.4032 2.75 26.125 2.75C23.8468 2.75 22 4.59683 22 6.875C22 9.15317 23.8468 11 26.125 11Z" fill="#EE7623"/>
</svg>
