<svg width="16" height="16" viewBox="0 0 16 16" fill="none" xmlns="http://www.w3.org/2000/svg">
<path d="M5.78125 9.55307C5.78125 10.4131 6.44125 11.1064 7.26125 11.1064H8.93458C9.64792 11.1064 10.2279 10.4997 10.2279 9.75307C10.2279 8.93973 9.87458 8.65307 9.34792 8.4664L6.66125 7.53307C6.13458 7.3464 5.78125 7.05973 5.78125 6.2464C5.78125 5.49973 6.36125 4.89307 7.07458 4.89307H8.74792C9.56792 4.89307 10.2279 5.5864 10.2279 6.4464" stroke="#111827" stroke-width="1.5" stroke-miterlimit="10" stroke-linecap="round" stroke-linejoin="round"/>
<path d="M8 4V12" stroke="#111827" stroke-width="1.5" stroke-miterlimit="10" stroke-linecap="round" stroke-linejoin="round"/>
<path d="M8.00001 14.6666C11.6819 14.6666 14.6667 11.6818 14.6667 7.99992C14.6667 4.31802 11.6819 1.33325 8.00001 1.33325C4.31811 1.33325 1.33334 4.31802 1.33334 7.99992C1.33334 11.6818 4.31811 14.6666 8.00001 14.6666Z" stroke="#111827" stroke-width="1.5" stroke-miterlimit="10" stroke-linecap="round" stroke-linejoin="round"/>
</svg>
