<svg width="16" height="16" viewBox="0 0 16 16" fill="none" xmlns="http://www.w3.org/2000/svg">
<path d="M14.6666 3.99992V5.61325C14.6666 6.66659 13.9999 7.33325 12.9466 7.33325H10.6666V2.67325C10.6666 1.93325 11.2733 1.33325 12.0133 1.33325C12.74 1.33992 13.4066 1.63325 13.8866 2.11325C14.3666 2.59992 14.6666 3.26659 14.6666 3.99992Z" stroke="#111827" stroke-width="1.5" stroke-miterlimit="10" stroke-linecap="round" stroke-linejoin="round"/>
<path d="M1.33331 4.66659V13.9999C1.33331 14.5533 1.95996 14.8666 2.39996 14.5333L3.53998 13.6799C3.80664 13.4799 4.17998 13.5066 4.41998 13.7466L5.52663 14.8599C5.78663 15.1199 6.21333 15.1199 6.47333 14.8599L7.59332 13.7399C7.82666 13.5066 8.19998 13.4799 8.45998 13.6799L9.6 14.5333C10.04 14.8599 10.6666 14.5466 10.6666 13.9999V2.66659C10.6666 1.93325 11.2666 1.33325 12 1.33325H4.66665H3.99998C1.99998 1.33325 1.33331 2.52659 1.33331 3.99992V4.66659Z" stroke="#111827" stroke-width="1.5" stroke-miterlimit="10" stroke-linecap="round" stroke-linejoin="round"/>
<path d="M4 6H8" stroke="#111827" stroke-width="1.5" stroke-miterlimit="10" stroke-linecap="round" stroke-linejoin="round"/>
<path d="M4.5 8.6665H7.5" stroke="#111827" stroke-width="1.5" stroke-miterlimit="10" stroke-linecap="round" stroke-linejoin="round"/>
</svg>
