<svg width="16" height="16" viewBox="0 0 16 16" fill="none" xmlns="http://www.w3.org/2000/svg">
<path d="M12.4868 11.3382C12.3198 11.206 12.2363 11.0112 12.2363 10.7538V4.28278C12.2363 4.02533 12.3198 3.83051 12.4868 3.6983C12.6608 3.5661 12.8695 3.5 13.113 3.5C13.3566 3.5 13.5653 3.5661 13.7393 3.6983C13.9132 3.83051 14.0002 4.02533 14.0002 4.28278V10.7538C14.0002 11.0112 13.9132 11.206 13.7393 11.3382C13.5653 11.4774 13.3566 11.547 13.113 11.547C12.8695 11.547 12.6608 11.4774 12.4868 11.3382Z" fill="#111827"/>
<path d="M9.61719 11.3382C9.4502 11.206 9.3667 11.0112 9.3667 10.7538V4.28278C9.3667 4.02533 9.4502 3.83051 9.61719 3.6983C9.79114 3.5661 9.99988 3.5 10.2434 3.5C10.4869 3.5 10.6957 3.5661 10.8696 3.6983C11.0436 3.83051 11.1306 4.02533 11.1306 4.28278V10.7538C11.1306 11.0112 11.0436 11.206 10.8696 11.3382C10.6957 11.4774 10.4869 11.547 10.2434 11.547C9.99988 11.547 9.79114 11.4774 9.61719 11.3382Z" fill="#111827"/>
<path d="M3.58643 11.0669C3.53077 11.2339 3.409 11.3626 3.22114 11.453C3.03327 11.5435 2.81409 11.5609 2.5636 11.5052C2.4314 11.4635 2.32355 11.4078 2.24005 11.3382C2.15656 11.2686 2.09393 11.1886 2.05219 11.0982C2.0174 11.0077 2 10.9173 2 10.8268C2 10.7364 2.01392 10.6494 2.04175 10.5659L4.30659 4.16797C4.35529 4.02881 4.45619 3.89661 4.60926 3.77136C4.7693 3.63916 5.00587 3.57306 5.31898 3.57306C5.63209 3.57306 5.86867 3.63916 6.0287 3.77136C6.18874 3.89661 6.29311 4.02881 6.34181 4.16797L8.60665 10.5868C8.69015 10.8303 8.68667 11.0251 8.59622 11.1712C8.50576 11.3174 8.34921 11.4217 8.12655 11.4843C7.86214 11.5609 7.63949 11.5539 7.45858 11.4635C7.28463 11.373 7.16286 11.2234 7.09328 11.0147L6.61318 9.5848H4.08741L3.58643 11.0669ZM6.18526 8.32192L5.35029 5.82746L4.51533 8.32192H6.18526Z" fill="#111827"/>
</svg>
