<svg width="16" height="16" viewBox="0 0 16 16" fill="none" xmlns="http://www.w3.org/2000/svg">
<path d="M2 4.49969H14" stroke="white" stroke-width="1.5" stroke-linecap="round" stroke-linejoin="round"/>
<path d="M3.5 4.49969H12.5V13.4997C12.5 13.7649 12.3946 14.0193 12.2071 14.2068C12.0196 14.3943 11.7652 14.4997 11.5 14.4997H4.5C4.23478 14.4997 3.98043 14.3943 3.79289 14.2068C3.60536 14.0193 3.5 13.7649 3.5 13.4997V4.49969Z" stroke="white" stroke-width="1.5" stroke-linecap="round" stroke-linejoin="round"/>
<path d="M5.5 4.49988V3.99988C5.5 3.33684 5.76339 2.70095 6.23223 2.23211C6.70107 1.76327 7.33696 1.49988 8 1.49988C8.66304 1.49988 9.29893 1.76327 9.76777 2.23211C10.2366 2.70095 10.5 3.33684 10.5 3.99988V4.49988" stroke="white" stroke-width="1.5" stroke-linecap="round" stroke-linejoin="round"/>
<path d="M6.5 7.50104V11.5026" stroke="white" stroke-width="1.5" stroke-linecap="round" stroke-linejoin="round"/>
<path d="M9.5 7.50104V11.5026" stroke="white" stroke-width="1.5" stroke-linecap="round" stroke-linejoin="round"/>
</svg>
