<svg width="16" height="16" viewBox="0 0 15.5 12.3889" fill="none" xmlns="http://www.w3.org/2000/svg">
<path id="Icon" d="M3 8.86138C1.75736 8.86138 0.75 8.08375 0.75 6.94355C0.75 5.80335 1.75736 4.87903 3 4.87903C3.0845 4.87903 3.16792 4.88331 3.25 4.89163V4.87903H3.28095C3.26052 4.72874 3.25 4.57562 3.25 4.42025C3.25 2.39323 5.04086 0.75 7.25 0.75C8.74597 0.75 10.0501 1.50352 10.7363 2.61948C10.9039 2.59685 11.0755 2.58513 11.25 2.58513C13.183 2.58513 14.75 4.02295 14.75 5.79659C14.75 7.25664 13.6881 8.36965 12.2344 8.73653M7.63953 11.6389V6.37007M9.9375 8.543L7.63953 6.37007L5.34375 8.543" stroke="white" stroke-width="1.5" stroke-linecap="round" stroke-linejoin="round"/>
</svg>
