<svg width="16" height="16" viewBox="0 0 16 16" fill="none" xmlns="http://www.w3.org/2000/svg">
<path d="M12 4.77325C11.96 4.76659 11.9134 4.76659 11.8734 4.77325C10.9534 4.73992 10.22 3.98659 10.22 3.05325C10.22 2.09992 10.9867 1.33325 11.94 1.33325C12.8934 1.33325 13.66 2.10659 13.66 3.05325C13.6534 3.98659 12.92 4.73992 12 4.77325Z" stroke="#111827" stroke-width="1.5" stroke-miterlimit="10" stroke-linecap="round" stroke-linejoin="round"/>
<path d="M11.3133 9.62669C12.2267 9.78003 13.2333 9.62003 13.94 9.14669C14.88 8.52003 14.88 7.49336 13.94 6.86669C13.2267 6.39336 12.2067 6.23336 11.2933 6.39336" stroke="#111827" stroke-width="1.5" stroke-miterlimit="10" stroke-linecap="round" stroke-linejoin="round"/>
<path d="M3.98001 4.77325C4.02001 4.76659 4.06667 4.76659 4.10667 4.77325C5.02667 4.73992 5.76001 3.98659 5.76001 3.05325C5.76001 2.09992 4.99334 1.33325 4.04001 1.33325C3.08668 1.33325 2.32001 2.10659 2.32001 3.05325C2.32667 3.98659 3.06001 4.73992 3.98001 4.77325Z" stroke="#111827" stroke-width="1.5" stroke-miterlimit="10" stroke-linecap="round" stroke-linejoin="round"/>
<path d="M4.66669 9.62669C3.75335 9.78003 2.74669 9.62003 2.04002 9.14669C1.10002 8.52003 1.10002 7.49336 2.04002 6.86669C2.75336 6.39336 3.77335 6.23336 4.68669 6.39336" stroke="#111827" stroke-width="1.5" stroke-miterlimit="10" stroke-linecap="round" stroke-linejoin="round"/>
<path d="M8.00003 9.75323C7.96003 9.74657 7.91336 9.74657 7.87336 9.75323C6.95336 9.7199 6.22003 8.96657 6.22003 8.03323C6.22003 7.0799 6.9867 6.31323 7.94003 6.31323C8.89336 6.31323 9.66003 7.08657 9.66003 8.03323C9.65336 8.96657 8.92003 9.72657 8.00003 9.75323Z" stroke="#111827" stroke-width="1.5" stroke-miterlimit="10" stroke-linecap="round" stroke-linejoin="round"/>
<path d="M6.06004 11.8532C5.12004 12.4799 5.12004 13.5066 6.06004 14.1332C7.12671 14.8466 8.87337 14.8466 9.94004 14.1332C10.88 13.5066 10.88 12.4799 9.94004 11.8532C8.88004 11.1466 7.12671 11.1466 6.06004 11.8532Z" stroke="#111827" stroke-width="1.5" stroke-miterlimit="10" stroke-linecap="round" stroke-linejoin="round"/>
</svg>
