<svg width="16" height="16" viewBox="0 0 12 12" fill="none" xmlns="http://www.w3.org/2000/svg" aria-hidden="true">
  <path d="M6 0C2.688 0 0 2.688 0 6C0 9.312 2.688 12 6 12C9.312 12 12 9.312 12 6C12 2.688 9.312 0 6 0ZM6 9.6C5.56 9.6 5.2 9.24 5.2 8.8C5.2 8.36 5.56 8 6 8C6.44 8 6.8 8.36 6.8 8.8C6.8 9.24 6.44 9.6 6 9.6ZM6.916 3.396L6.648 6.604C6.62 6.94 6.34 7.2 6 7.2C5.66 7.2 5.38 6.94 5.352 6.604L5.084 3.396C5.04 2.86 5.46 2.4 6 2.4C6.512 2.4 6.92 2.816 6.92 3.32C6.92 3.344 6.92 3.372 6.916 3.396Z" fill="#9ACFFD"/>
</svg>
