<svg width="99" height="40" viewBox="0 0 99 40" fill="none" xmlns="http://www.w3.org/2000/svg">
<g clip-path="url(#clip0_167_4482)">
<path d="M6.72418 26.4212C5.45224 25.8214 4.41108 25.3405 4.41108 24.3609C4.41108 23.6156 5.00477 23.0691 6.1763 23.0691C6.60967 23.0691 6.96025 23.1223 7.32492 23.188C7.51695 23.2235 7.7213 23.2501 7.8869 23.2501C8.91044 23.2501 9.49004 22.6379 9.87233 21.4684L10.0309 20.9893C9.8688 20.9236 8.19344 20.1819 6.01246 20.1819C2.54017 20.1819 0.706247 22.4267 0.70977 24.7531C0.70977 25.9279 1.07444 26.7779 1.64523 27.4451C2.38162 28.3075 3.42982 28.8718 4.41108 29.3545C5.83982 30.0608 7.1329 30.586 7.1329 31.6312C7.1329 32.5629 6.17806 33.0917 4.90436 33.0917C3.15676 33.0917 1.62937 32.0855 1.43559 31.9649L-0.00195312 34.6728C0.257016 34.8183 2.10151 35.9966 5.14395 35.9966C8.3837 35.9948 10.8377 34.1263 10.8377 31.2444C10.8377 28.3625 8.56515 27.3191 6.72242 26.4212H6.72418Z" fill="#CE0E2D"/>
<path d="M19.396 27.7574L25.2712 20.4977H21.0872L16.3941 26.7619H16.3271V20.4977H12.876V35.8742H13.0821C14.5725 35.8742 16.3518 35.1768 16.3518 32.6693V29.138H16.4205L21.1982 35.6843H25.5883L19.3942 27.7574H19.396Z" fill="#CE0E2D"/>
<path d="M25.4704 4.02466C24.2548 4.25357 22.4509 5.36799 22.4579 7.33063C22.4614 9.11582 23.9113 10.1965 23.9166 12.5354C23.9219 14.2939 22.9582 15.4776 21.9224 16.1377C22.3416 16.1004 22.8032 16.0756 23.3071 16.0756C24.3711 16.072 25.0124 16.175 25.0529 16.1803L30.5018 9.44234C28.9903 7.15673 27.2233 5.38396 25.4722 4.02466H25.4704Z" fill="#CE0E2D"/>
<path d="M30.0494 22.2262C30.7383 21.1508 30.8246 19.4348 30.881 17.6869C30.9461 16.0561 31.2861 14.8316 33.4495 14.8228C33.9287 14.821 34.3832 14.8867 35.2094 14.8849C38.384 14.8742 40.4522 13.7722 41.74 13.0518C39.1063 11.3606 35.2658 9.63755 30.5022 9.44235C30.1939 10.3243 27.7786 17.0835 27.5972 17.6319C27.6254 17.6638 28.0446 18.1412 28.5767 19.0728C29.3553 20.354 29.7729 21.4365 30.0512 22.2262H30.0494Z" fill="#CE0E2D"/>
<path d="M18.5331 16.702C18.2582 16.702 18.1208 16.5192 18.0838 16.198C18.0503 15.8804 16.685 3.31484 16.4824 1.41253C16.4507 1.1357 16.3838 0.626409 16.3838 0.443631C16.3838 0.150831 16.5741 -5.11754e-06 16.7943 -5.11754e-06C17.4408 -0.00532875 20.9624 0.825158 24.7007 3.46391C23.6191 3.7709 21.6759 4.89596 21.683 7.23304C21.69 9.30038 23.1575 10.4361 23.1698 12.5105C23.1804 15.8839 19.3311 16.702 18.5331 16.702Z" fill="#EE7623"/>
<path d="M30.3626 23.1205C30.4207 23.2767 30.4754 23.4098 30.53 23.5003C30.6163 23.6476 30.729 23.715 30.8647 23.715C30.9528 23.715 31.0602 23.6848 31.1765 23.628C31.4654 23.495 42.8512 18.1571 44.5671 17.3586C44.8173 17.2397 45.2859 17.0285 45.4427 16.9362C45.6048 16.8404 45.677 16.7073 45.677 16.5689C45.677 16.4908 45.6523 16.4163 45.6118 16.3471C45.3986 15.994 44.2976 14.8174 42.4549 13.5291C40.9909 14.3419 38.7095 15.5947 35.3112 15.6089C34.4779 15.6089 34.2894 15.5556 33.7204 15.5556C32.0644 15.5627 31.6504 16.2779 31.5887 17.7401C31.5799 18.0169 31.5746 18.3896 31.5553 18.7995C31.5059 20.1073 31.3509 21.9121 30.3608 23.1205H30.3626Z" fill="#EE7623"/>
<path d="M96.6196 33.0278V28.8967H98.3813L98.9996 27.3013H96.6214V24.8046C96.6214 24.8046 96.4311 24.801 96.4241 24.8046C95.4851 24.8046 94.5144 25.2056 94.5144 27.2783V27.3013H92.957V28.8967H94.5144V33.7625C94.5144 35.136 95.323 35.8546 96.4698 35.8546C97.3965 35.8546 98.5927 35.5707 98.5927 33.7181C98.5187 33.766 98.0712 34.0588 97.578 34.0588C96.8909 34.0588 96.6196 33.6347 96.6196 33.0296V33.0278Z" fill="#EE7623"/>
<path d="M35.6865 30.5985C35.6865 29.6473 36.3524 28.7636 37.2755 28.7636C38.3167 28.7636 38.8892 29.6721 38.9051 30.5985H35.6865ZM37.309 27.1718C35.2936 27.1718 33.5918 28.8221 33.5918 31.5283C33.5918 34.2345 35.2407 35.8671 37.7053 35.8671C39.6661 35.8671 40.6791 35.0047 40.8042 34.9266C40.8042 34.9266 40.6121 34.6107 40.5575 34.5238C40.2845 34.0712 39.9709 33.924 39.6256 33.924C38.9315 33.924 38.8416 34.2185 37.9027 34.2185C36.2889 34.2185 35.7305 32.948 35.6917 32.105H41.0896V31.4733C41.0896 28.8807 39.6062 27.1736 37.309 27.1736" fill="#EE7623"/>
<path d="M54.9981 34.2363C56.2947 34.2363 57.0293 33.1183 57.0293 31.523C57.0293 29.9277 56.3052 28.8008 54.9981 28.8008C53.6909 28.8008 52.9651 29.9117 52.9651 31.523C52.9651 33.1343 53.6909 34.2363 54.9981 34.2363ZM54.9981 35.8671C52.4225 35.8671 50.8687 34.1564 50.8687 31.5248C50.8687 28.8931 52.4031 27.1718 54.9981 27.1718C57.593 27.1718 59.1222 28.9038 59.1222 31.5248C59.1222 34.002 57.7093 35.8671 54.9981 35.8671Z" fill="#EE7623"/>
<path d="M49.2515 33.5602C49.0912 33.6649 48.339 34.1529 47.2908 34.1529C45.8621 34.1529 44.8438 33.0154 44.8438 31.5283C44.8438 29.8727 46.0012 28.886 47.2908 28.886C47.9867 28.886 48.2791 29.1007 48.7389 29.1007C49.2304 29.1007 49.4911 28.8612 49.7343 28.3821C49.8681 28.1194 49.9509 27.9668 49.9509 27.9668C49.8452 27.8994 48.7794 27.1718 46.9737 27.1718C44.3206 27.1718 42.7368 29.0848 42.7368 31.5283C42.7368 34.1937 44.5496 35.8671 46.9737 35.8671C48.7301 35.8671 49.7959 35.1448 49.9809 35.01L49.2533 33.5602H49.2515Z" fill="#EE7623"/>
<path d="M84.1401 30.0643V35.6736H86.2312V29.8443C86.3457 29.7378 87.0874 29.0244 87.9118 29.0244C88.9865 29.0244 89.5449 29.8088 89.5449 30.8309V35.6736H91.6325V30.3039C91.6325 27.7539 89.6859 27.1895 88.5989 27.1895C87.2917 27.1895 86.3616 28.02 86.0867 28.2951C85.9987 27.9526 85.5987 27.3741 84.688 27.3741C84.3656 27.3741 83.9445 27.4699 83.9058 27.4806C83.9692 27.7982 84.1418 28.5488 84.1418 30.0643H84.1401Z" fill="#EE7623"/>
<path d="M72.3809 33.333V24.6591C72.3809 23.6795 71.7308 22.9236 70.7249 22.9236H70.2739V34.1848C70.2739 35.2211 70.9117 35.8653 72.0198 35.8653C73.3868 35.8653 73.7938 34.8858 73.7938 33.963C73.7374 33.9914 73.4485 34.1121 73.1578 34.1121C72.6698 34.1121 72.3809 33.8264 72.3809 33.3313V33.333Z" fill="#EE7623"/>
<path d="M80.0369 33.5833C79.903 33.6596 79.3375 34.1742 78.4936 34.1742C77.7661 34.1742 77.2129 33.7323 77.2129 32.9959C77.2129 32.373 77.8084 31.8371 78.9482 31.8371H80.0351V33.5833H80.0369ZM80.2131 34.8414C80.361 35.2247 80.7151 35.6754 81.4533 35.6754C81.8409 35.6754 82.3447 35.5725 82.4257 35.5406C82.3658 35.2992 82.1721 34.648 82.1721 33.1858V30.2666C82.1721 28.0999 80.7874 27.1683 78.6452 27.1683C76.8447 27.1683 75.5604 28.0378 75.4107 28.1389C75.4107 28.1389 75.497 28.2898 75.5552 28.3963C75.7348 28.705 75.8934 29.1593 76.4237 29.1593C76.9539 29.1593 77.3979 28.7547 78.3985 28.7547C79.4978 28.7547 80.0334 29.2906 80.0334 30.1105V30.4068H79.3393C76.5188 30.4068 75.0337 31.5035 75.0337 33.2674C75.0337 34.8237 76.214 35.8671 77.8401 35.8671C79.4661 35.8671 80.0756 34.9567 80.2095 34.8414" fill="#EE7623"/>
<path d="M63.9649 34.1777C63.4417 34.1777 63.0647 34.0819 62.9379 34.05V29.0174C63.0559 28.9907 63.4206 28.886 63.9649 28.886C65.2439 28.886 66.3626 29.7236 66.3626 31.5301C66.3626 33.3366 65.3602 34.1777 63.9649 34.1777ZM64.238 27.1559C62.4199 27.1559 61.0581 27.6084 60.8203 27.6864V40.0018H61.155C62.1275 40.0018 62.9396 39.3487 62.9396 38.0445V35.7322C62.9995 35.7464 63.6373 35.9239 64.3825 35.9239C66.6603 35.9239 68.6422 34.4954 68.6422 31.4733C68.6422 28.9304 67.0162 27.1559 64.238 27.1559Z" fill="#EE7623"/>
</g>
<defs>
<clipPath id="clip0_167_4482">
<rect width="99" height="40" fill="white"/>
</clipPath>
</defs>
</svg>
