<svg width="16" height="16" viewBox="0 0 16 16" fill="none" xmlns="http://www.w3.org/2000/svg">
<path d="M6.20667 9.79997L7.20667 10.8L9.87333 8.1333" stroke="#111827" stroke-width="1.5" stroke-linecap="round" stroke-linejoin="round"/>
<path d="M6.66668 3.99992H9.33334C10.6667 3.99992 10.6667 3.33325 10.6667 2.66659C10.6667 1.33325 10 1.33325 9.33334 1.33325H6.66668C6.00001 1.33325 5.33334 1.33325 5.33334 2.66659C5.33334 3.99992 6.00001 3.99992 6.66668 3.99992Z" stroke="#111827" stroke-width="1.5" stroke-miterlimit="10" stroke-linecap="round" stroke-linejoin="round"/>
<path d="M10.6667 2.67993C12.8867 2.79993 14 3.61993 14 6.6666V10.6666C14 13.3333 13.3333 14.6666 10 14.6666H6C2.66667 14.6666 2 13.3333 2 10.6666V6.6666C2 3.6266 3.11333 2.79993 5.33333 2.67993" stroke="#111827" stroke-width="1.5" stroke-miterlimit="10" stroke-linecap="round" stroke-linejoin="round"/>
</svg>
