<svg width="16" height="16" viewBox="0 0 16 16" fill="none" xmlns="http://www.w3.org/2000/svg">
<path d="M14 13.0769C14 13.3217 13.9027 13.5566 13.7296 13.7296C13.5566 13.9027 13.3217 14 13.0769 14H2.92308C2.67826 14 2.44347 13.9027 2.27036 13.7296C2.09725 13.5566 2 13.3217 2 13.0769V6.07077C2.00102 5.82861 2.09716 5.59655 2.26769 5.42462L5.42462 2.26769C5.59655 2.09716 5.82861 2.00102 6.07077 2H13.0769C13.3217 2 13.5566 2.09725 13.7296 2.27036C13.9027 2.44347 14 2.67826 14 2.92308V13.0769Z" stroke="#111827" stroke-width="1.5" stroke-linecap="round" stroke-linejoin="round"/>
<path d="M11.2306 14V9.84618C11.2306 9.72377 11.1819 9.60638 11.0954 9.51983C11.0089 9.43327 10.8914 9.38464 10.769 9.38464H5.23058C5.10817 9.38464 4.99078 9.43327 4.90423 9.51983C4.81767 9.60638 4.76904 9.72377 4.76904 9.84618V14" stroke="#111827" stroke-width="1.5" stroke-linecap="round" stroke-linejoin="round"/>
<path d="M11.2306 2V5.23077C11.2306 5.35318 11.182 5.47058 11.0955 5.55712C11.0089 5.64368 10.8915 5.69231 10.7691 5.69231H7.07677C6.95436 5.69231 6.83697 5.64368 6.75042 5.55712C6.66386 5.47058 6.61523 5.35318 6.61523 5.23077V2" stroke="#111827" stroke-width="1.5" stroke-linecap="round" stroke-linejoin="round"/>
</svg>
