<svg width="58" height="20" viewBox="0 0 57.746 20" fill="none" xmlns="http://www.w3.org/2000/svg">
  <svg x="0.000" y="0.000" width="15.389" height="20.000" viewBox="0 0 15.3919 20" fill="none" xmlns="http://www.w3.org/2000/svg">
<path id="Vector" d="M11.1829 5.86223C11.1069 5.0958 10.7807 4.5004 10.2043 4.07601C9.62787 3.65162 8.84561 3.43943 7.85748 3.43943C7.18607 3.43943 6.61916 3.53444 6.15677 3.72447C5.69438 3.90816 5.33967 4.16469 5.09264 4.49406C4.85194 4.82344 4.73159 5.19715 4.73159 5.6152C4.71892 5.96358 4.79177 6.26762 4.95012 6.52732C5.11481 6.78702 5.33967 7.01188 5.6247 7.2019C5.90974 7.38559 6.23911 7.54711 6.61283 7.68646C6.98654 7.81948 7.38559 7.93349 7.80998 8.0285L9.5582 8.44656C10.407 8.63658 11.1861 8.88994 11.8955 9.20665C12.6049 9.52336 13.2193 9.91291 13.7387 10.3753C14.2581 10.8377 14.6603 11.3824 14.9454 12.0095C15.2367 12.6366 15.3856 13.3555 15.3919 14.1663C15.3856 15.3571 15.0816 16.3895 14.4798 17.2637C13.8844 18.1314 13.023 18.806 11.8955 19.2874C10.7743 19.7625 9.42201 20 7.83848 20C6.26762 20 4.89945 19.7593 3.73397 19.2779C2.57482 18.7965 1.66904 18.0839 1.01663 17.1401C0.370546 16.19 0.0316707 15.015 0 13.6152H3.981C4.02534 14.2676 4.21219 14.8124 4.54157 15.2494C4.87728 15.6801 5.32383 16.0063 5.88124 16.228C6.44497 16.4434 7.08155 16.5511 7.79097 16.5511C8.48773 16.5511 9.09264 16.4497 9.6057 16.247C10.1251 16.0443 10.5273 15.7625 10.8124 15.4014C11.0974 15.0404 11.2399 14.6255 11.2399 14.1568C11.2399 13.7197 11.1101 13.3523 10.8504 13.0546C10.597 12.7569 10.2233 12.5036 9.72922 12.2945C9.24149 12.0855 8.64291 11.8955 7.93349 11.7245L5.81473 11.1924C4.17419 10.7933 2.87886 10.1694 1.92874 9.32067C0.978622 8.47189 0.50673 7.32858 0.513064 5.89074C0.50673 4.71259 0.820269 3.68329 1.45368 2.80285C2.09343 1.92241 2.97071 1.23516 4.08551 0.741093C5.20032 0.247031 6.46714 0 7.88599 0C9.33017 0 10.5907 0.247031 11.6675 0.741093C12.7506 1.23516 13.593 1.92241 14.1948 2.80285C14.7965 3.68329 15.1069 4.70309 15.1259 5.86223H11.1829Z" fill="#3CA0F8"/>
  </svg>
  <svg x="18.161" y="0.266" width="14.650" height="19.458" viewBox="0 0 14.6508 19.4584" fill="none" xmlns="http://www.w3.org/2000/svg">
<path id="Vector" d="M0 19.4584V0H7.67696C9.15281 0 10.4101 0.281868 11.4489 0.845606C12.4877 1.40301 13.2795 2.17894 13.8242 3.1734C14.3753 4.16152 14.6508 5.30166 14.6508 6.59382C14.6508 7.88598 14.3721 9.02613 13.8147 10.0143C13.2573 11.0024 12.4497 11.772 11.3919 12.323C10.3405 12.8741 9.0673 13.1496 7.57245 13.1496H2.67934V9.85273H6.90736C7.69913 9.85273 8.35154 9.71655 8.86461 9.44418C9.38401 9.16548 9.77039 8.78226 10.0238 8.29454C10.2835 7.80047 10.4133 7.23357 10.4133 6.59382C10.4133 5.94774 10.2835 5.38401 10.0238 4.90261C9.77039 4.41488 9.38401 4.038 8.86461 3.77197C8.34521 3.4996 7.68646 3.36342 6.88836 3.36342H4.11401V15.3444C4.11401 17.6165 2.27211 19.4584 0 19.4584Z" fill="#006CCA"/>
  </svg>
  <svg x="35.485" y="0.266" width="4.112" height="19.458" viewBox="0 0 4.11401 19.4584" fill="none" xmlns="http://www.w3.org/2000/svg">
<path id="Vector" d="M4.11401 0V19.4584H0V0H4.11401Z" fill="#003B6F"/>
  </svg>
  <svg x="42.357" y="0.000" width="15.389" height="20.000" viewBox="0 0 15.3919 20" fill="none" xmlns="http://www.w3.org/2000/svg">
<path id="Vector" d="M11.1829 5.86223C11.1069 5.0958 10.7807 4.5004 10.2043 4.07601C9.62787 3.65162 8.84561 3.43943 7.85748 3.43943C7.18607 3.43943 6.61916 3.53444 6.15677 3.72447C5.69438 3.90816 5.33966 4.16469 5.09263 4.49406C4.85194 4.82344 4.73159 5.19715 4.73159 5.6152C4.71892 5.96358 4.79177 6.26762 4.95012 6.52732C5.11481 6.78702 5.33967 7.01188 5.6247 7.2019C5.90974 7.38559 6.23911 7.54711 6.61282 7.68646C6.98654 7.81948 7.38559 7.93349 7.80997 8.0285L9.5582 8.44656C10.407 8.63658 11.1861 8.88994 11.8955 9.20665C12.6049 9.52336 13.2193 9.91291 13.7387 10.3753C14.2581 10.8377 14.6603 11.3824 14.9454 12.0095C15.2367 12.6366 15.3856 13.3555 15.3919 14.1663C15.3856 15.3571 15.0816 16.3895 14.4798 17.2637C13.8844 18.1314 13.023 18.806 11.8955 19.2874C10.7743 19.7625 9.42201 20 7.83848 20C6.26761 20 4.89945 19.7593 3.73397 19.2779C2.57482 18.7965 1.66904 18.0839 1.01663 17.1401C0.370546 16.19 0.0316707 15.015 0 13.6152H3.981C4.02534 14.2676 4.21219 14.8124 4.54156 15.2494C4.87727 15.6801 5.32383 16.0063 5.88123 16.228C6.44497 16.4434 7.08155 16.5511 7.79097 16.5511C8.48773 16.5511 9.09264 16.4497 9.6057 16.247C10.1251 16.0443 10.5273 15.7625 10.8124 15.4014C11.0974 15.0404 11.2399 14.6255 11.2399 14.1568C11.2399 13.7197 11.1101 13.3523 10.8504 13.0546C10.597 12.7569 10.2233 12.5036 9.72922 12.2945C9.24149 12.0855 8.64291 11.8955 7.93349 11.7245L5.81473 11.1924C4.17419 10.7933 2.87886 10.1694 1.92874 9.32067C0.978621 8.47189 0.506728 7.32858 0.513062 5.89074C0.506728 4.71259 0.820267 3.68329 1.45368 2.80285C2.09343 1.92241 2.9707 1.23516 4.08551 0.741093C5.20032 0.247031 6.46714 0 7.88599 0C9.33017 0 10.5907 0.247031 11.6675 0.741093C12.7506 1.23516 13.593 1.92241 14.1948 2.80285C14.7965 3.68329 15.1069 4.70309 15.1259 5.86223H11.1829Z" fill="#00203C"/>
  </svg>
</svg>
