<svg width="16" height="16" viewBox="0 0 16 16" fill="none" xmlns="http://www.w3.org/2000/svg">
<path d="M2 14.6665H14" stroke="#111827" stroke-width="1.5" stroke-miterlimit="10" stroke-linecap="round" stroke-linejoin="round"/>
<path d="M3.73332 5.58667H2.66667C2.3 5.58667 2 5.88667 2 6.25334V12C2 12.3667 2.3 12.6667 2.66667 12.6667H3.73332C4.09998 12.6667 4.39998 12.3667 4.39998 12V6.25334C4.39998 5.88667 4.09998 5.58667 3.73332 5.58667Z" stroke="#111827" stroke-width="1.5" stroke-miterlimit="10" stroke-linecap="round" stroke-linejoin="round"/>
<path d="M8.5333 3.45996H7.46665C7.09999 3.45996 6.79999 3.75996 6.79999 4.12663V12C6.79999 12.3666 7.09999 12.6666 7.46665 12.6666H8.5333C8.89997 12.6666 9.19997 12.3666 9.19997 12V4.12663C9.19997 3.75996 8.89997 3.45996 8.5333 3.45996Z" stroke="#111827" stroke-width="1.5" stroke-miterlimit="10" stroke-linecap="round" stroke-linejoin="round"/>
<path d="M13.3334 1.33325H12.2667C11.9 1.33325 11.6 1.63325 11.6 1.99992V11.9999C11.6 12.3666 11.9 12.6666 12.2667 12.6666H13.3334C13.7 12.6666 14 12.3666 14 11.9999V1.99992C14 1.63325 13.7 1.33325 13.3334 1.33325Z" stroke="#111827" stroke-width="1.5" stroke-miterlimit="10" stroke-linecap="round" stroke-linejoin="round"/>
</svg>
