<svg width="16" height="17" viewBox="0 0 16 17" fill="none" xmlns="http://www.w3.org/2000/svg">
<path d="M14.9253 10.7643C14.6054 10.2078 14.0245 9.89131 13.3254 9.89131C12.4273 9.89131 11.8339 9.22384 11.8227 8.5C11.8192 8.19044 11.9236 7.87391 12.1566 7.59912C12.4209 7.28609 12.8071 7.10869 13.214 7.10869C13.9827 7.10869 14.6053 6.78522 14.9288 6.22522C15.2349 5.69303 15.2314 5.02522 14.9184 4.48609C13.4888 2.02697 10.8384 0.5 7.99667 0.5C4.17057 0.5 0.873168 3.19219 0.153168 6.90347C0.0488554 7.43566 -0.00336338 7.96781 0.00016787 8.5V8.52087C0.00713662 10.3643 0.640168 12.1557 1.82626 13.5922C3.34973 15.4391 5.60017 16.5 7.9967 16.5C10.8454 16.5 13.4994 14.9661 14.9254 12.5C15.2349 11.9643 15.2349 11.3 14.9253 10.7643ZM8.72704 3.75566C9.15839 3.00784 10.1114 2.74697 10.8662 3.18175C11.614 3.61309 11.8714 4.56962 11.4401 5.32088C11.0087 6.06522 10.0522 6.32609 9.30095 5.89131C8.55314 5.46 8.29579 4.50697 8.72704 3.75566Z" fill="#FFC542"/>
<path d="M3.47489 10.0652C2.61179 10.0652 1.90967 9.36307 1.90967 8.49997C1.90967 7.63688 2.61179 6.93475 3.47489 6.93475C4.33798 6.93475 5.04011 7.63688 5.04011 8.49997C5.04011 9.36307 4.33798 10.0652 3.47489 10.0652Z" fill="#10B981"/>
<path d="M4.95265 13.644C4.20505 13.2127 3.94608 12.2566 4.37996 11.5058C4.80793 10.7643 5.76152 10.4966 6.51786 10.9332C7.26543 11.3645 7.52443 12.3205 7.09055 13.0713C6.66018 13.8173 5.70499 14.0785 4.95265 13.644Z" fill="#6990FB"/>
<path d="M9.67892 13.9744C8.84417 13.7508 8.3477 12.8936 8.57192 12.0575C8.79614 11.2218 9.65286 10.7269 10.4887 10.9508C10.8925 11.0588 11.2302 11.3178 11.4391 11.6797C11.6483 12.0418 11.704 12.4637 11.5957 12.8677C11.3711 13.7047 10.513 14.1981 9.67892 13.9744Z" fill="#A270FE"/>
<path d="M4.37992 5.49409C3.94696 4.74516 4.20333 3.7885 4.95261 3.35584C5.70302 2.92331 6.65883 3.18044 7.09052 3.92872C7.52417 4.67922 7.26574 5.63512 6.51783 6.06697C5.76386 6.50181 4.80939 6.2385 4.37992 5.49409Z" fill="#F25A3D"/>
</svg>
