<svg width="16" height="16" viewBox="0 0 16 16" fill="none" xmlns="http://www.w3.org/2000/svg">
<path d="M8.42006 2.93429L9.78292 5.68572C9.81392 5.75556 9.86267 5.81605 9.92434 5.86117C9.986 5.90628 10.0584 5.93446 10.1343 5.94286L13.1429 6.38858C13.2301 6.39977 13.3122 6.43552 13.3797 6.49166C13.4473 6.54778 13.4975 6.62198 13.5244 6.70556C13.5514 6.78915 13.554 6.87868 13.5319 6.9637C13.51 7.04873 13.4642 7.12573 13.4 7.18572L11.2315 9.33715C11.1762 9.38886 11.1346 9.45359 11.1107 9.52545C11.0867 9.5973 11.0811 9.67401 11.0943 9.74858L11.6172 12.7743C11.6323 12.8613 11.6227 12.9507 11.5896 13.0324C11.5564 13.1142 11.5009 13.185 11.4295 13.2369C11.3581 13.2886 11.2735 13.3193 11.1854 13.3255C11.0974 13.3316 11.0094 13.3129 10.9315 13.2714L8.22292 11.84C8.15357 11.8059 8.07732 11.7883 8.00006 11.7883C7.9228 11.7883 7.84656 11.8059 7.7772 11.84L5.06863 13.2714C4.99071 13.3129 4.90272 13.3316 4.81469 13.3255C4.72665 13.3193 4.64209 13.2886 4.57065 13.2369C4.4992 13.185 4.44372 13.1142 4.41053 13.0324C4.37735 12.9507 4.36778 12.8613 4.38292 12.7743L4.90577 9.71429C4.91903 9.63972 4.91342 9.56302 4.88947 9.49116C4.86552 9.4193 4.82398 9.35458 4.76863 9.30286L2.57435 7.18572C2.50943 7.12409 2.46378 7.04495 2.44292 6.95791C2.42206 6.87086 2.42689 6.77962 2.45682 6.69526C2.48676 6.6109 2.54051 6.53704 2.61158 6.4826C2.68264 6.42817 2.76796 6.3955 2.8572 6.38858L5.86577 5.94286C5.94172 5.93446 6.01413 5.90628 6.07579 5.86117C6.13745 5.81605 6.18621 5.75556 6.2172 5.68572L7.58006 2.93429C7.61717 2.85416 7.67644 2.78631 7.75086 2.73877C7.82528 2.69122 7.91175 2.66595 8.00006 2.66595C8.08837 2.66595 8.17485 2.69122 8.24927 2.73877C8.32368 2.78631 8.38295 2.85416 8.42006 2.93429Z" fill="#A1A8B6"/>
</svg>
