<svg width="16" height="16" viewBox="0 0 16 16" fill="none" xmlns="http://www.w3.org/2000/svg">
<path d="M11.5889 12.1015H13.6396C13.9116 12.1015 14.1724 11.9934 14.3647 11.8012C14.5569 11.6089 14.665 11.3481 14.665 11.0761V6.46191C14.665 6.18996 14.5569 5.92915 14.3647 5.73685C14.1724 5.54456 13.9116 5.43652 13.6396 5.43652H2.36041C2.08845 5.43652 1.82765 5.54456 1.63535 5.73685C1.44305 5.92915 1.33502 6.18996 1.33502 6.46191V11.0761C1.33502 11.3481 1.44305 11.6089 1.63535 11.8012C1.82765 11.9934 2.08845 12.1015 2.36041 12.1015H4.41118" stroke="#111827" stroke-width="1.5" stroke-miterlimit="10" stroke-linecap="round" stroke-linejoin="round"/>
<path d="M4.41119 10.5635V14.1523C4.41119 14.2883 4.46521 14.4187 4.56136 14.5149C4.6575 14.611 4.78791 14.665 4.92389 14.665H11.0762C11.2122 14.665 11.3426 14.611 11.4388 14.5149C11.5348 14.4187 11.5889 14.2883 11.5889 14.1523V10.5635H4.41119Z" stroke="#111827" stroke-width="1.5" stroke-miterlimit="10" stroke-linecap="round" stroke-linejoin="round"/>
<path d="M11.5889 5.4365V1.84765C11.5889 1.71168 11.5348 1.58127 11.4388 1.48513C11.3426 1.38898 11.2122 1.33496 11.0762 1.33496H4.92389C4.78791 1.33496 4.6575 1.38898 4.56136 1.48513C4.46521 1.58127 4.41119 1.71168 4.41119 1.84765V5.4365" stroke="#111827" stroke-width="1.5" stroke-miterlimit="10" stroke-linecap="round" stroke-linejoin="round"/>
<path d="M12.1016 8H11.0762" stroke="#111827" stroke-width="1.5" stroke-miterlimit="10" stroke-linecap="round" stroke-linejoin="round"/>
</svg>
